/* XPM */
static char *_946f85a35514aebb88dfffd176c31f7[] = {
/* columns rows colors chars-per-pixel */
"64 64 244 2 ",
"   c #000100",
".  c #000B00",
"X  c #001400",
"o  c #001C00",
"O  c #0A140A",
"+  c #151F15",
"@  c #002500",
"#  c #002B00",
"$  c #0F2A05",
"%  c #082308",
"&  c #003400",
"*  c #083200",
"=  c #003B00",
"-  c #0C3E02",
";  c #0C330C",
":  c #0B3E0A",
">  c #143C06",
",  c #153208",
"<  c #193308",
"1  c #163316",
"2  c #243D05",
"3  c #353F12",
"4  c #263D26",
"5  c #2F372F",
"6  c #2D392D",
"7  c #333D33",
"8  c #0F4202",
"9  c #0A410A",
"0  c #144204",
"q  c #1A4107",
"w  c #1F440A",
"e  c #174715",
"r  c #1B4B1B",
"t  c #224308",
"y  c #25480B",
"u  c #2D480C",
"i  c #2D530E",
"p  c #3F570D",
"a  c #21491C",
"s  c #324112",
"d  c #3C4A14",
"f  c #3C5614",
"g  c #3B5C13",
"h  c #234821",
"j  c #2A5627",
"k  c #325926",
"l  c #334333",
"z  c #3C4B3C",
"x  c #3E513E",
"c  c #3C5E39",
"v  c #386432",
"b  c #435C16",
"n  c #4B691A",
"m  c #576C1E",
"M  c #5C711A",
"N  c #5A6622",
"B  c #4E6436",
"V  c #607124",
"C  c #6A7C26",
"Z  c #707A25",
"A  c #717D2D",
"S  c #737A34",
"D  c #415341",
"F  c #456D40",
"G  c #4A694A",
"H  c #4C7048",
"J  c #5D7D4C",
"K  c #526652",
"L  c #556B55",
"P  c #5A635A",
"I  c #5B7B50",
"U  c #5A715A",
"Y  c #617F55",
"T  c #647C5E",
"R  c #4E707D",
"E  c #5C7376",
"W  c #51727C",
"Q  c #5C747A",
"!  c #616961",
"~  c #647564",
"^  c #637963",
"/  c #6B766B",
"(  c #6A7D6A",
")  c #647D7F",
"_  c #6C7E7E",
"`  c #747E72",
"'  c #7A797A",
"]  c #7D883F",
"[  c #67845E",
"{  c #698560",
"}  c #6D846D",
"|  c #78846D",
" . c #748C6A",
".. c #6E956E",
"X. c #7E9B6F",
"o. c #718370",
"O. c #7A8877",
"+. c #78877B",
"@. c #7D877A",
"#. c #7C957C",
"$. c #81902A",
"%. c #858734",
"&. c #8A8F34",
"*. c #8A903F",
"=. c #8C8F42",
"-. c #898E4D",
";. c #8D9141",
":. c #899249",
">. c #919342",
",. c #979842",
"<. c #999A49",
"1. c #999E49",
"2. c #868D5E",
"3. c #9C9D52",
"4. c #939A5D",
"5. c #A29E53",
"6. c #A6AD42",
"7. c #ADAC4F",
"8. c #A6A356",
"9. c #AEA852",
"0. c #A5A25F",
"q. c #BFBD5C",
"w. c #868C6F",
"e. c #8B9560",
"r. c #839468",
"t. c #949464",
"y. c #9E9E60",
"u. c #898E77",
"i. c #858D7C",
"p. c #81997A",
"a. c #8E987B",
"s. c #919D76",
"d. c #9A9F73",
"f. c #989578",
"g. c #9C9E7A",
"h. c #88A177",
"j. c #97A57D",
"k. c #9BA27F",
"l. c #A0A16C",
"z. c #ABA46C",
"x. c #A1A86A",
"c. c #B4AC63",
"v. c #B8AB6F",
"b. c #A8A570",
"n. c #BCA77A",
"m. c #B7B279",
"M. c #B8B37E",
"N. c #D0BB6C",
"B. c #CBC66C",
"V. c #E0C87C",
"C. c #4A7184",
"Z. c #507682",
"A. c #5C7684",
"S. c #5E7C83",
"D. c #567C8B",
"F. c #5A7D8A",
"G. c #5D828F",
"H. c #598293",
"J. c #678286",
"K. c #61828A",
"L. c #6F8688",
"P. c #768B87",
"I. c #748E8C",
"U. c #648995",
"Y. c #6F8890",
"T. c #7D9694",
"R. c #7F9999",
"E. c #818281",
"W. c #898F86",
"Q. c #879587",
"!. c #8A9383",
"~. c #8E9D86",
"^. c #86978A",
"/. c #8E958E",
"(. c #959C84",
"). c #939C8B",
"_. c #9B9F8C",
"`. c #8A9C93",
"'. c #899A97",
"]. c #959C93",
"[. c #8FAA84",
"{. c #9CA686",
"}. c #9CB18E",
"|. c #8FA39C",
" X c #9CA490",
".X c #94AA94",
"XX c #99B599",
"oX c #A0A187",
"OX c #A3A48C",
"+X c #B1A784",
"@X c #B6AE82",
"#X c #BAAE85",
"$X c #B1BA8F",
"%X c #AAAE92",
"&X c #A4AE9F",
"*X c #AFBA99",
"=X c #B9B799",
"-X c #B8B89D",
";X c #849FA0",
":X c #97AAA0",
">X c #A8ACA8",
",X c #A8B1A0",
"<X c #AAB1AA",
"1X c #BABEAD",
"2X c #C2B68C",
"3X c #A9C1A9",
"4X c #BFC6A3",
"5X c #B6CBB6",
"6X c #BDC1BD",
"7X c #B8CAB8",
"8X c #CAC097",
"9X c #D6C892",
"0X c #DECA9C",
"qX c #E3CE83",
"wX c #E9CF90",
"eX c #ECD192",
"rX c #F5D895",
"tX c #C2C7A4",
"yX c #C8C3A5",
"uX c #CAC6A8",
"iX c #C6CAAF",
"pX c #D1D0AE",
"aX c #DAD8AC",
"sX c #C1CAB5",
"dX c #C0C6BA",
"fX c #ECDAA6",
"gX c #F2DFAE",
"hX c #E3DBB4",
"jX c #F2E1B9",
"kX c #C1C7C1",
"lX c #C3CCC3",
"zX c #CCC8CC",
"xX c #CBD1CB",
"cX c #DAD6DA",
"vX c #DCDDDC",
"bX c #CDE0CD",
"nX c #D4E3D4",
"mX c #DEE3DE",
"MX c #E0E3E0",
"NX c gray92",
"BX c #F3F1F3",
"VX c #F6FCF6",
"CX c #FBF6FB",
"ZX c gray100",
/* pixels */
"ZXZXZXZXZXZXZXZXZXZXZXZXZXZXZXZXZXZXZXZXZXZXZXZXZXZXZXZXZXZXZXZXZXZXZXZXZXZXZXZXZXZXZXZXZXZXZXZXZXZXZXZXZXZXZXZXZXZXZXZXZXZXZXZX",
"ZXZXZXZXZXZXZXZXZXZXZXZXZXZXZXZXZXZXZXZXZXZXZXZXZXZXZXZXZXZXZXZXZXZXZXZXZXZXZXZXZXZXZXZXZXZXZXZXZXZXZXZXZXZXZXZXZXZXZXZXZXZXZXZX",
"ZXZXZXZXZXZXZXZXZXZXZXZXZXZXZXZXZXZXZXZXZXZXZXZXZXZXZXZXZXZXZXZXZXZXZXZXZXZXZXZXZXZXZXZXZXZXZXZXZXZXZXZXZXZXZXZXZXZXZXZXZXZXZXZX",
"ZXZXZXZXZXZXZXZXZXZXZXZXZXZXZXZXZXZXZXZXZXZXZXZXZXZXZXZXZXZXZXZXZXZXZXZXZXZXZXZXZXZXZXZXZXZXZXZXZXZXZXZXZXZXZXZXZXZXZXZXZXZXZXZX",
"ZXZXZXZXZXZXZXZXBXZXZXZXZXZXZXZXZXZXZXZXZXZXZXZXZXZXZXZXZXZXZXZXZXZXZXZXZXZXZXZXZXZXZXZXZXZXZXZXZXZXZXZXZXZXZXZXZXZXZXZXZXZXZXZX",
"ZXZXZXZXZXZXZXZXZXZXZXZXZXZXZXZXZXZXZXZXZXZXZXZXZXZXZXZXZXZXZXZXZXZXZXZXZXZXZXZXZXZXZXZXZXZXZXZXZXZXZXZXZXZXZXZXZXZXZXZXZXZXZXZX",
"ZXZXZXZXZXZXZXZXZXZXZXZXZXZXZXZXZXZXZXZXZXZXZXZXZXZXZXZXZXZXZXZXZXZXZXZXZXZXZXZXZXZXZXZXZXZXZXZXZXZXZXZXZXZXZXZXZXZXZXZXZXZXZXZX",
"ZXZXZXZXZXZXZXZXZXZXZXZXZXZXZXZXZXZXZXZXZXZXZXZXZXZXZXZXZXZXZXZXZXZXZXZXZXZXZXZXZXZXZXZXZXZXZXZXZXZXZXZXZXZXZXZXZXZXZXZXZXZXZXZX",
"ZXZXZXZXZXZXZXZXZXZXZXZXZXZXZXZXZXZXZXZXZXZXZXZXZXZXZXZXZXZXZXZXZXZXZXZXZXZXZXZXZXZXZXZXZXZXZXZXZXZXZXZXZXZXZXZXZXZXZXZXZXZXZXZX",
"ZXZXZXZXZXZXZXZXZXZXZXZXZXZXZXZXZXZXZXZXZXZXZXZXZXZXZXZXZXZXZXZXZXZXZXZXZXZXZXZXZXZXZXZXZXZXZXZXZXZXZXZXZXZXZXZXZXZXZXZXZXZXZXZX",
"ZXZXZXZXZXZXZXZXZXZXZXZXZXZXZXZXZXZXZXZXZXZXZXZXZXZXZXZXZXZXZXZXZXZXZXZXZXZXZXZXZXZXZXZXZXZXZXZXZXZXZXZXZXZXZXZXZXZXZXZXZXZXZXZX",
"ZXZXZXZXZXZXZXZXZXZXZXZXZXZXZXZXZXZXZXZXZXZXZXZXZXZXZXZXZXZXZXZXZXZXZXZXZXZXZXZXZXZXZXZXZXZXZXZXZXZXZXZXZXZXZXZXZXZXZXZXZXZXZXZX",
"ZXZXZXZXZXZXZXZXZXZXZXZXZXZXZXZXZXZXZXZXZXZXZXZXZXZXZXZX5X( z 7 l P XXCXZXZXZXZXZXZXZXZXZXZXZXZXZXZXZXZXZXZXZXZXZXZXZXZXZXZXZXZX",
"ZXZXZXZXZXZXZXZXZXZXZXZXZXZXZXZXZXZXZXZXZXZXZXZXZXZX^     X . X o   .   6 nXZXZXZXZXZXZXZXZXZXZXZXZXZXZXZXZXZXZXZXZXZXZXZXZXZXZX",
"ZXZXZXZXZXZXZXZXZXZXZXZXZXZXZXZXZXZXZXZXZXZXZXZX<X  . o @ # ` W.O.$ @ #     K ZXZXZXZXZXZXZXZXZXZXZXZXZXZXZXZXZXZXZXZXZXZXZXZXZX",
"ZXZXZXZXZXZXZXZXZXZXZXZXZXZXZXZXZXZXZXZXZXZXZX^   # & o # a dX].T.S # & o # o O ZXZXZXZXZXZXZXZXZXZXZXZXZXZXZXZXZXZXZXZXZXZXZXZX",
"ZXZXZXZXZXZXZXZXZXZXZXZXZXZXZXZXZXZXZXZXZXZXP . o # & @ # F 0X@.S.<.& & @ # #   o ZXZXZXZXZXZXZXZXZXZXZXZXZXZXZXZXZXZXZXZXZXZXZX",
"ZXZXZXZXZXZXZXZXZXZXZXZXZXZXZXZXZXZXZXZXZX/.  # @ # = @ # { R.I.U.c.* = @ & & o o 1 ZXZXZXZXZXZXZXZXZXZXZXZXZXZXZXZXZXZXZXZXZXZX",
"ZXZXZXZXZXZXZXZXZXZXZXZXZXZXZXZXZXZXZXZXMX  # & @ & = # # p.f.u.C.N.y & # & & @ # X ^ ZXZXZXZXZXZXZXZXZXZXZXZXZXZXZXZXZXZXZXZXZX",
"ZXZXZXZXZXZXZXZXZXZXZXZXZXZXZXZXZXZXZXZX. o # & @ & 9 @ # *XK.~.8XM.b = @ & = @ # &   nXZXZXZXZXZXZXZXZXZXZXZXZXZXZXZXZXZXZXZXZX",
"ZXZXZXZXZXZXZXZXZXZXZXZXZXZXZXZXZXZXZX' X @ # = # & = # & aX#Xm.P.M.m & # & = # & & X O ZXZXZXZXZXZXZXZXZXZXZXZXZXZXZXZXZXZXZXZX",
"ZXZXZXZXZXZXZXZXZXZXZXZXZXZXZXZXZXZXZX. # @ & = @ & = @ ; tXW x.oXJ.A & @ & = @ & & o   >XZXZXZXZXZXZXZXZXZXZXZXZXZXZXZXZXZXZXZX",
"ZXZXZXZXZXZXZXZXZXZXZXZXZXZXZXZXZXZXE.. & @ & = # & = @ r hX2Xq. X].=.- @ & = # & & @ @ ; ZXZXZXZXZXZXZXZXZXZXZXZXZXZXZXZXZXZXZX",
"ZXZXZXZXZXZXZXZXZXZXZXZXZXZXZXZXZXZX. @ & @ & = @ & = o I Y.f.6.@XW.-.8 @ & = @ & = @ #   cXZXZXZXZXZXZXZXZXZXZXZXZXZXZXZXZXZXZX",
"ZXZXZXZXZXZXZXZXZXZXZXZXZXZXZXZXZXvX  # & # & = # & = o h.-Xg.$.9XT.c.0 @ & = @ & = @ # @ ( ZXZXZXZXZXZXZXZXZXZXZXZXZXZXZXZXZXZX",
"ZXZXZXZXZXZXZXZXZXZXZXZXZXZXZXZXZX#.. # = @ & = # & = X }._ z.M j.K.l.i @ & = @ & = @ & X O ZXZXZXZXZXZXZXZXZXZXZXZXZXZXZXZXZXZX",
"ZXZXZXZXZXZXZXZXZXZXZXZXZXZXZXZXZX6 X # = # & = @ & = @ tXOXe.p  .8Xj.n @ & = @ & = @ & &   ZXZXZXZXZXZXZXZXZXZXZXZXZXZXZXZXZXZX",
"ZXZXZXZXZXZXZXZXZXZXZXZXZXZXZXZXZXX o # = # & = # & & ; iXP.8.t [ ^.Q.C @ & = # & = @ & # . lXZXZXZXZXZXZXZXZXZXZXZXZXZXZXZXZXZX",
"ZXZXZXZXZXZXZXZXZXZXZXZXZXZXZXZXZX  @ # = # & = # & = h uXi.1.* H 9X(.%.@ & = @ & = @ & # . .XZXZXZXZXZXZXZXZXZXZXZXZXZXZXZXZXZX",
"ZXZXZXZXZXZXZXZXZXZXZXZXZXZXZXZXmXX o & = @ & 9 @ & & c gX^.*.# k :X`.:.@ & = @ & = @ & &   } ZXZXZXZXZXZXZXZXZXZXZXZXZXZXZXZXZX",
"ZXZXZXZXZXZXZXZXZXZXZXZXZXZXZXZXlXX @ # = @ & = @ & & T _.w.%.# : 0X!.5.> & = # & = @ & &   L ZXZXZXZXZXZXZXZXZXZXZXZXZXZXZXZXZX",
"ZXZXZXZXZXZXZXZXZXZXZXZXZXZXZXZX6XX o & 9 # & = # & # ).=Xs.Z @ @ &XH.t.u # = @ & = # & &   G ZXZXZXZXZXZXZXZXZXZXZXZXZXZXZXZXZX",
"ZXZXZXZXZXZXZXZXZXZXZXZXZXZXZXZX6XX @ # = @ & = @ & & ,X+.V.B.{.{.fXC.v.f # = # & = @ & =   G ZXZXZXZXZXZXZXZXZXZXZXZXZXZXZXZXZX",
"ZXZXZXZXZXZXZXZXZXZXZXZXZXZXZXZXkXo o & = @ & 9 # & & 1X#X) oX#X8XZ.~.a.N & = @ & = @ & &   K ZXZXZXZXZXZXZXZXZXZXZXZXZXZXZXZXZX",
"ZXZXZXZXZXZXZXZXZXZXZXZXZXZXZXZXvX. @ # = # & = @ & 9 jXG.G.F.D.G.K.G.P.S & = @ & = @ & & . / ZXZXZXZXZXZXZXZXZXZXZXZXZXZXZXZXZX",
"ZXZXZXZXZXZXZXZXZXZXZXZXZXZXZXZXZX. o # = # & = @ # v yXE E Q E ) ) R O.=.& = # & = # & # X /.ZXZXZXZXZXZXZXZXZXZXZXZXZXZXZXZXZX",
"ZXZXZXZXZXZXZXZXZXZXZXZXZXZXZXZXZX  o # = @ & = # # Y ;XI.wXeXeXrXrXT.'.8.& = @ = = @ & &   7XZXZXZXZXZXZXZXZXZXZXZXZXZXZXZXZXZX",
"ZXZXZXZXZXZXZXZXZXZXZXZXZXZXZXZXZX4 o # = @ & = @ # r.J.| >.=.;.;.1.qXQ c.2 = @ & = @ & o   CXZXZXZXZXZXZXZXZXZXZXZXZXZXZXZXZXZX",
"ZXZXZXZXZXZXZXZXZXZXZXZXZXZXZXZXZXo.X @ = # & = @ # $X'.b.A < w w 2 [. Xd.f & @ & = @ # #   ZXZXZXZXZXZXZXZXZXZXZXZXZXZXZXZXZXZX",
"ZXZXZXZXZXZXZXZXZXZXZXZXZXZXZXZXZXbX  # & @ & = @ # aXL.2.n o & = X h._.k.m & @ & = @ & o U ZXZXZXZXZXZXZXZXZXZXZXZXZXZXZXZXZXZX",
"ZXZXZXZXZXZXZXZXZXZXZXZXZXZXZXZXZXZX  # & # & = @ = hX+X8.i @ & = o X.(.+.A & @ & = @ @   zXZXZXZXZXZXZXZXZXZXZXZXZXZXZXZXZXZXZX",
"ZXZXZXZXZXZXZXZXZXZXZXZXZXZXZXZXZXZXo.  & @ & = @ e sX X9.q @ & = o J |.%X] = @ & = @ X @ ZXZXZXZXZXZXZXZXZXZXZXZXZXZXZXZXZXZXZX",
"ZXZXZXZXZXZXZXZXZXZXZXZXZXZXZXZXZXZXZX  o @ & = o F |.` ,.- @ = = @ j 0Xn.3.= @ & & o X ].ZXZXZXZXZXZXZXZXZXZXZXZXZXZXZXZXZXZXZX",
"ZXZXZXZXZXZXZXZXZXZXZXZXZXZXZXZXZXZXZX! X @ # = o X.&X(.&.= @ & = @ : pX`.4.- @ & & X o ZXZXZXZXZXZXZXZXZXZXZXZXZXZXZXZXZXZXZXZX",
"ZXZXZXZXZXZXZXZXZXZXZXZXZXZXZXZXZXZXZXZXo o # & o [.].` Z = # & = @ - 4XA.e.0 @ & @   5XZXZXZXZXZXZXZXZXZXZXZXZXZXZXZXZXZXZXZXZX",
"ZXZXZXZXZXZXZXZXZXZXZXZXZXZXZXZXZXZXZXZX6X  X & @ a 0.3.V & # & = @ & B y.7.> o # . x ZXZXZXZXZXZXZXZXZXZXZXZXZXZXZXZXZXZXZXZXZX",
"ZXZXZXZXZXZXZXZXZXZXZXZXZXZXZXZXZXZXZXZXZX~   @ @ @ g 3 , = # & = # & - d s * @ @ X ZXZXZXZXZXZXZXZXZXZXZXZXZXZXZXZXZXZXZXZXZXZX",
"ZXZXZXZXZXZXZXZXZXZXZXZXZXZXZXZXZXZXZXZXZXZX7 X o # & @ & = # & = # & = o # @   X ZXZXZXZXZXZXZXZXZXZXZXZXZXZXZXZXZXZXZXZXZXZXZX",
"ZXZXZXZXZXZXZXZXZXZXZXZXZXZXZXZXZXZXZXZXZXZXZXz   o # o # = @ & & @ # & @ o X   VXZXZXZXZXZXZXZXZXZXZXZXZXZXZXZXZXZXZXZXZXZXZXZX",
"ZXZXZXZXZXZXZXZXZXZXZXZXZXZXZXZXZXZXZXZXZXZXZXZX@.  o . X & o # & @ @ #     4 ZXZXZXZXZXZXZXZXZXZXZXZXZXZXZXZXZXZXZXZXZXZXZXZXZX",
"ZXZXZXZXZXZXZXZXZXZXZXZXZXZXZXZXZXZXZXZXZXZXZXZXZXNXl     X o @ #   . . . 3XZXZXZXZXZXZXZXZXZXZXZXZXZXZXZXZXZXZXZXZXZXZXZXZXZXZX",
"ZXZXZXZXZXZXZXZXZXZXZXZXZXZXZXZXZXZXZXZXZXZXZXZXZXZXZXBXQ.D + o % 5 ..xXZXZXZXZXZXZXZXZXZXZXZXZXZXZXZXZXZXZXZXZXZXZXZXZXZXZXZXZX",
"ZXZXZXZXZXZXZXZXZXZXZXZXZXZXZXZXZXZXZXZXZXZXZXZXZXZXZXZXZXZXZXZXZXZXZXZXZXZXZXZXZXZXZXZXZXZXZXZXZXZXZXZXZXZXZXZXZXZXZXZXZXZXZXZX",
"ZXZXZXZXZXZXZXZXZXZXZXZXZXZXZXZXZXZXZXZXZXZXZXZXZXZXZXZXZXZXZXZXZXZXZXZXZXZXZXZXZXZXZXZXZXZXZXZXZXZXZXZXZXZXZXZXZXZXZXZXZXZXZXZX",
"ZXZXZXZXZXZXZXZXZXZXZXZXZXZXZXZXZXZXZXZXZXZXZXZXZXZXZXZXZXZXZXZXZXZXZXZXZXZXZXZXZXZXZXZXZXZXZXZXZXZXZXZXZXZXZXZXZXZXZXZXZXZXZXZX",
"ZXZXZXZXZXZXZXZXZXZXZXZXZXZXZXZXZXZXZXZXZXZXZXZXZXZXZXZXZXZXZXZXZXZXZXZXZXZXZXZXZXZXZXZXZXZXZXZXZXZXZXZXZXZXZXZXZXZXZXZXZXZXZXZX",
"ZXZXZXZXZXZXZXZXZXZXZXZXZXZXZXZXZXZXZXZXZXZXZXZXZXZXZXZXZXZXZXZXZXZXZXZXZXZXZXZXZXZXZXZXZXZXZXZXZXZXZXZXZXZXZXZXZXZXZXZXZXZXZXZX",
"ZXZXZXZXZXZXZXZXZXZXZXZXZXZXZXZXZXZXZXZXZXZXZXZXZXZXZXZXZXZXZXZXZXZXZXZXZXZXZXZXZXZXZXZXZXZXZXZXZXZXZXZXZXZXZXZXZXZXZXZXZXZXZXZX",
"ZXZXZXZXZXZXZXZXZXZXZXZXZXZXZXZXZXZXZXZXZXZXZXZXZXZXZXZXZXZXZXZXZXZXZXZXZXZXZXZXZXZXZXZXZXZXZXZXZXZXZXZXZXZXZXZXZXZXZXZXZXZXZXZX",
"ZXZXZXZXZXZXZXZXZXZXZXZXZXZXZXZXZXZXZXZXZXZXZXZXZXZXZXZXZXZXZXZXZXZXZXZXZXZXZXZXZXZXZXZXZXZXZXZXZXZXZXZXZXZXZXZXZXZXZXZXZXZXZXZX",
"ZXZXZXZXZXZXZXZXZXZXZXZXZXZXZXZXZXZXZXZXZXZXZXZXZXZXZXZXZXZXZXZXZXZXZXZXZXZXZXZXZXZXZXZXZXZXZXZXZXZXZXZXZXZXZXZXZXZXZXZXZXZXZXZX",
"ZXZXZXZXZXZXZXZXZXZXZXZXZXZXZXZXZXZXZXZXZXZXZXZXZXZXZXZXZXZXZXZXZXZXZXZXZXZXZXZXZXZXZXZXZXZXZXZXZXZXZXZXZXZXZXZXZXZXZXZXZXZXZXZX",
"ZXZXZXZXZXZXZXZXZXZXZXZXZXZXZXZXZXZXZXZXZXZXZXZXZXZXZXZXZXZXZXZXZXZXZXZXZXZXZXZXZXZXZXZXZXZXZXZXZXZXZXZXZXZXZXZXZXZXZXZXZXZXZXZX",
"ZXZXZXZXZXZXZXZXZXZXZXZXZXZXZXZXZXZXZXZXZXZXZXZXZXZXZXZXZXZXZXZXZXZXZXZXZXZXZXZXZXZXZXZXZXZXZXZXZXZXZXZXZXZXZXZXZXZXZXZXZXZXZXZX"
};
