/* XPM */
static char *_53afbd720634a95c90462f325fc5f5e[] = {
/* columns rows colors chars-per-pixel */
"16 16 55 1 ",
"  c #000500",
". c #000900",
"X c #000E00",
"o c #001200",
"O c #001600",
"+ c #001800",
"@ c #002200",
"# c #002500",
"$ c #002A00",
"% c #002F00",
"& c #043700",
"* c #0F3A00",
"= c #083D06",
"- c #0B3C0D",
"; c #173503",
": c #11310F",
"> c #193B19",
", c #1E391D",
"< c #1D4404",
"1 c #294816",
"2 c #2F5119",
"3 c #264027",
"4 c #2F5627",
"5 c #354C35",
"6 c #395E36",
"7 c #59703E",
"8 c #475D47",
"9 c #495F49",
"0 c #436547",
"q c #4D634D",
"w c #587440",
"e c #536455",
"r c #607160",
"t c #617563",
"y c #7A8651",
"u c #738458",
"i c #6F876E",
"p c #788B6E",
"a c #708570",
"s c #7B897B",
"d c #7D8B7D",
"f c #808647",
"g c #85936A",
"h c #8D9669",
"j c #8C986E",
"k c #9AA174",
"l c #9FA77B",
"z c #859185",
"x c #8A9B9B",
"c c #929E96",
"v c #B8BBB8",
"b c #BDC1BD",
"n c #EFEFEF",
"m c #F3F2F3",
"M c gray100",
/* pixels */
"MMMMMMMMMMMMMMMM",
"MMMMMMMMMMMMMMMM",
"MMMMMMMMMMMMMMMM",
"MMMMMMr,:zMMMMMM",
"MMMMM5oiw.aMMMMM",
"MMMMbO@lu#.mMMMM",
"MMMM9%@kj##dMMMM",
"MMMM>%-yg$$qMMMM",
"MMMM>%4cx*$qMMMM",
"MMMM8#0fh2@sMMMM",
"MMMMv.p<67 nMMMM",
"MMMMM31&=;tMMMMM",
"MMMMMMeX+tMMMMMM",
"MMMMMMMMMMMMMMMM",
"MMMMMMMMMMMMMMMM",
"MMMMMMMMMMMMMMMM"
};
