/* XPM */
static char *_957a8f73a4e47a6cc2a9ec3941992e7[] = {
/* columns rows colors chars-per-pixel */
"32 32 126 2 ",
"   c black",
".  c #000700",
"X  c #000B00",
"o  c #000C00",
"O  c #001400",
"+  c #001500",
"@  c #001B00",
"#  c #001F00",
"$  c #061B06",
"%  c #041D06",
"&  c #081F08",
"*  c #002000",
"=  c #002700",
"-  c #002900",
";  c #002C00",
":  c #082108",
">  c #0D2B0D",
",  c #003200",
"<  c #003400",
"1  c #083500",
"2  c #003800",
"3  c #183604",
"4  c #173B03",
"5  c #1A2C1A",
"6  c #1E311E",
"7  c #0E410D",
"8  c #114000",
"9  c #1F4405",
"0  c #224500",
"q  c #2E530B",
"w  c #2F560D",
"e  c #3D5810",
"r  c #274D25",
"t  c #284728",
"y  c #235120",
"u  c #2C5427",
"i  c #314432",
"p  c #39483A",
"a  c #3A533A",
"s  c #385438",
"d  c #356033",
"f  c #425C17",
"g  c #4D6819",
"h  c #486521",
"j  c #5A6C27",
"k  c #446639",
"l  c #466B3E",
"z  c #66772A",
"x  c #60712D",
"c  c #687A38",
"v  c #4D644D",
"b  c #4F674F",
"n  c #547347",
"m  c #52774F",
"M  c #516551",
"N  c #5E7150",
"B  c #647764",
"V  c #667C66",
"C  c #7B8540",
"Z  c #768349",
"A  c #6B855B",
"S  c #7D8C55",
"D  c #7B8E6C",
"F  c #708170",
"G  c #748C74",
"H  c #788778",
"J  c #7C877C",
"K  c #8B9044",
"L  c #839366",
"P  c #8D9564",
"I  c #8A9B6C",
"U  c #999E6F",
"Y  c #899878",
"T  c #BBB569",
"R  c #A1A177",
"E  c #A2A675",
"W  c #ACA97F",
"Q  c #B0AB7D",
"!  c #CFBB6B",
"~  c #D9C470",
"^  c #527385",
"/  c #5B7988",
"(  c #587B8A",
")  c #68848C",
"_  c #738F82",
"`  c #889C83",
"'  c #8E9C83",
"]  c #8F9986",
"[  c #889188",
"{  c #88948B",
"}  c #8D9D8D",
"|  c #959B80",
" . c #939D8D",
".. c #929B92",
"X. c #959D95",
"o. c #9A9C9A",
"O. c #99A393",
"+. c #99A793",
"@. c #9CAA96",
"#. c #9BA49F",
"$. c #9FA79D",
"%. c #9EA79E",
"&. c #A3A682",
"*. c #A9A789",
"=. c #BCB983",
"-. c #B7B188",
";. c #A3A893",
":. c #A2AD95",
">. c #AEAD90",
",. c #AEB497",
"<. c #A6AAA2",
"1. c #A5ACA5",
"2. c #AEB8A5",
"3. c #B7BBAA",
"4. c #B5BFB5",
"5. c #BDC3BD",
"6. c #C6C1A9",
"7. c #D4CDB2",
"8. c #CBCDCB",
"9. c #CED7CE",
"0. c #D4D8D4",
"q. c #E0E7E0",
"w. c #E7EAE7",
"e. c gray95",
"r. c #FBFBFB",
"t. c gray100",
/* pixels */
"t.t.t.t.t.t.t.t.t.t.t.t.t.t.t.t.t.t.t.t.t.t.t.t.t.t.t.t.t.t.t.t.",
"t.t.t.t.t.t.t.t.t.t.t.t.t.t.t.t.t.t.t.t.t.t.t.t.t.t.t.t.t.t.t.t.",
"t.t.t.t.r.t.t.t.t.t.t.t.t.t.t.t.t.t.t.t.t.t.t.t.t.t.t.t.t.t.t.t.",
"t.t.t.t.t.t.t.t.t.t.t.t.t.t.t.t.t.t.t.t.t.t.t.t.t.t.t.t.t.t.t.t.",
"t.t.t.t.t.t.t.t.t.t.t.t.t.t.t.t.t.t.t.t.t.t.t.t.t.t.t.t.t.t.t.t.",
"t.t.t.t.t.t.t.t.t.t.t.t.t.t.t.t.t.t.t.t.t.t.t.t.t.t.t.t.t.t.t.t.",
"t.t.t.t.t.t.t.t.t.t.t.t.t.$.i + % v 0.t.t.t.t.t.t.t.t.t.t.t.t.t.",
"t.t.t.t.t.t.t.t.t.t.t.t.$ X = <.N #   M t.t.t.t.t.t.t.t.t.t.t.t.",
"t.t.t.t.t.t.t.t.t.t.t.o * - y $.Y < ; o a t.t.t.t.t.t.t.t.t.t.t.",
"t.t.t.t.t.t.t.t.t.t.5 = ; ; l { -.8 ; ; + } t.t.t.t.t.t.t.t.t.t.",
"t.t.t.t.t.t.t.t.t.1.o 2 , - A &. .q - , <   t.t.t.t.t.t.t.t.t.t.",
"t.t.t.t.t.t.t.t.t.& - 2 ; = G T ;.h = , < @ H t.t.t.t.t.t.t.t.t.",
"t.t.t.t.t.t.t.t.w.. , 2 ; = @.K +.c = , 2 - : t.t.t.t.t.t.t.t.t.",
"t.t.t.t.t.t.t.t.X.+ < 2 ; - 3.j ' S = , 2 ; . t.t.t.t.t.t.t.t.t.",
"t.t.t.t.t.t.t.t.V @ , 2 ; 7 6.e D U = ; 2 ; o 9.t.t.t.t.t.t.t.t.",
"t.t.t.t.t.t.t.t.b # , 2 = d >.0 n | 1 ; 2 ; X 4.t.t.t.t.t.t.t.t.",
"t.t.t.t.t.t.t.t.b # < 2 = m *.=.,.] 9 ; 2 , o 4.t.t.t.t.t.t.t.t.",
"t.t.t.t.t.t.t.t.B # , < # I ( ^ ( ) f ; 2 ; + 8.t.t.t.t.t.t.t.t.",
"t.t.t.t.t.t.t.t...+ , 2 # _ R ! ~ O.x - 2 ;   t.t.t.t.t.t.t.t.t.",
"t.t.t.t.t.t.t.t.q.  , 2 * 2.C = = :.Z = 2 = # t.t.t.t.t.t.t.t.t.",
"t.t.t.t.t.t.t.t.t.# - < - 7.z = = ` P = 2 + F t.t.t.t.t.t.t.t.t.",
"t.t.t.t.t.t.t.t.t.o.X < u #.g - = L Q - <   t.t.t.t.t.t.t.t.t.t.",
"t.t.t.t.t.t.t.t.t.t.> * r W w ; ; k E , o J t.t.t.t.t.t.t.t.t.t.",
"t.t.t.t.t.t.t.t.t.t.t.  # 4 < ; , < 3 o t t.t.t.t.t.t.t.t.t.t.t.",
"t.t.t.t.t.t.t.t.t.t.t.e.X X - - - *   p t.t.t.t.t.t.t.t.t.t.t.t.",
"t.t.t.t.t.t.t.t.t.t.t.t.t.[ 6 o + s 5.t.t.t.t.t.t.t.t.t.t.t.t.t.",
"t.t.t.t.t.t.t.t.t.t.t.t.t.t.t.t.t.t.t.t.t.t.t.t.t.t.t.t.t.t.t.t.",
"t.t.t.t.t.t.t.t.t.t.t.t.t.t.t.t.t.t.t.t.t.t.t.t.t.t.t.t.t.t.t.t.",
"t.t.t.t.t.t.t.t.t.t.t.t.t.t.t.t.t.t.t.t.t.t.t.t.t.t.t.t.t.t.t.t.",
"t.t.t.t.t.t.t.t.t.t.t.t.t.t.t.t.t.t.t.t.t.t.t.t.t.t.t.t.t.t.t.t.",
"t.t.t.t.t.t.t.t.t.t.t.t.t.t.t.t.t.t.t.t.t.t.t.t.t.t.t.t.t.t.t.t.",
"t.t.t.t.t.t.t.t.t.t.t.t.t.t.t.t.t.t.t.t.t.t.t.t.t.t.t.t.t.t.t.t."
};
